<?xml version="1.0" standalone="no"?>
<!DOCTYPE svg PUBLIC "-//W3C//DTD SVG 20010904//EN"
 "http://www.w3.org/TR/2001/REC-SVG-20010904/DTD/svg10.dtd">
<svg version="1.0" xmlns="http://www.w3.org/2000/svg"
 width="512.000000pt" height="512.000000pt" viewBox="0 0 512.000000 512.000000"
 preserveAspectRatio="xMidYMid meet">
<metadata>
Created by potrace 1.11, written by Peter Selinger 2001-2013
</metadata>
<g transform="translate(0.000000,512.000000) scale(0.100000,-0.100000)"
fill="#000000" stroke="none">
<path d="M4282 4296 c-36 -19 -431 -415 -448 -448 -48 -93 17 -208 120 -213
62 -3 84 9 168 92 l76 76 0 -337 c0 -185 -3 -336 -7 -336 -4 0 -11 4 -17 9
-37 33 -288 118 -409 138 -63 10 -327 10 -380 0 -22 -4 -56 -10 -75 -13 -56
-9 -209 -63 -285 -101 -171 -85 -364 -247 -459 -386 -35 -51 -43 -57 -75 -58
-182 -4 -164 -7 -183 31 -23 49 -29 64 -98 250 -34 91 -65 174 -70 185 -5 11
-45 119 -90 240 -44 121 -85 229 -90 240 -5 11 -19 47 -31 80 -11 33 -27 74
-34 90 -7 17 -20 53 -29 80 -27 80 -69 158 -97 178 -18 13 -45 20 -81 21 -46
1 -61 -4 -92 -28 -21 -15 -42 -40 -48 -55 -6 -14 -14 -35 -19 -46 -4 -11 -62
-166 -129 -345 -66 -179 -125 -334 -129 -345 -5 -11 -43 -110 -84 -220 -41
-110 -89 -238 -107 -285 l-32 -85 -226 -4 c-194 -2 -259 -4 -293 -10 -4 -1
-21 -13 -38 -29 -81 -70 -66 -196 28 -244 29 -14 62 -16 222 -14 104 1 189 -1
189 -5 0 -4 -5 -20 -12 -36 -6 -15 -12 -30 -13 -33 -7 -26 -73 -205 -94 -255
-48 -113 -95 -257 -94 -292 1 -80 65 -143 148 -143 68 0 122 44 148 120 20 57
204 548 217 575 5 11 12 30 15 42 4 13 16 25 28 28 12 3 205 6 429 8 l408 3
26 -70 c15 -39 37 -98 50 -131 12 -33 37 -98 54 -145 17 -47 49 -130 70 -185
21 -55 53 -138 70 -185 67 -177 152 -345 195 -380 8 -7 15 -17 15 -22 0 -9 61
-78 125 -141 158 -156 431 -295 635 -323 19 -3 58 -9 85 -13 83 -12 283 -4
375 14 14 3 34 7 45 9 52 10 212 69 282 105 43 21 112 63 153 92 83 58 246
216 275 267 11 17 23 32 27 32 4 0 8 7 8 15 0 8 4 15 9 15 5 0 11 8 15 17 3
10 19 43 36 73 33 61 37 101 15 153 -37 90 -171 114 -240 43 -6 -6 -26 -38
-45 -71 -19 -33 -40 -66 -47 -73 -7 -7 -13 -17 -13 -22 0 -8 -117 -130 -166
-171 -42 -36 -181 -119 -198 -119 -8 0 -17 -4 -20 -9 -8 -12 -162 -59 -222
-67 -65 -10 -258 -9 -314 1 -72 12 -212 61 -280 98 -243 132 -405 344 -477
622 -23 94 -23 334 1 415 9 30 19 66 21 80 9 41 79 181 122 244 39 56 123 148
174 191 56 48 233 155 257 155 4 0 34 9 67 20 33 11 78 22 100 25 22 4 51 8
65 11 50 8 209 5 271 -6 182 -32 374 -129 484 -245 59 -62 81 -75 129 -75 65
0 109 27 139 85 13 26 15 123 13 750 l-1 720 -25 33 c-42 56 -133 79 -188 48z
m-2492 -1031 c45 -121 86 -229 90 -240 20 -44 110 -292 110 -302 0 -8 -29 -11
-82 -11 -46 0 -180 -1 -298 -2 -267 -2 -244 -4 -235 18 29 70 176 459 206 542
10 30 23 64 28 75 5 11 23 60 41 108 39 105 24 125 140 -188z"/>
</g>
</svg>
