<?xml version="1.0" encoding="UTF-8"?>
<svg width="578px" height="352px" viewBox="0 0 578 352" version="1.1" xmlns="http://www.w3.org/2000/svg" xmlns:xlink="http://www.w3.org/1999/xlink">
    <title>aco_Group 6</title>
    <defs>
        <linearGradient x1="0.0046728972%" y1="50%" x2="99.9953271%" y2="50%" id="linearGradient-1">
            <stop stop-color="#1E6662" offset="1%"></stop>
            <stop stop-color="#2A9390" offset="100%"></stop>
        </linearGradient>
        <linearGradient x1="-4.26573054e-15%" y1="-21.6805734%" x2="100%" y2="-21.6805734%" id="linearGradient-2">
            <stop stop-color="#1E6662" offset="1%"></stop>
            <stop stop-color="#2A9390" offset="100%"></stop>
        </linearGradient>
        <linearGradient x1="0%" y1="-1.2%" x2="100%" y2="-1.2%" id="linearGradient-3">
            <stop stop-color="#1E6662" offset="1%"></stop>
            <stop stop-color="#2A9390" offset="100%"></stop>
        </linearGradient>
    </defs>
    <g id="AppConceptionOne" stroke="none" stroke-width="1" fill="none" fill-rule="evenodd">
        <g id="ACO-Home-v1" transform="translate(-812.000000, -4094.000000)">
            <g id="Group-6" transform="translate(812.345000, 4094.000000)">
                <g id="AppConceptionOne-15" transform="translate(151.655000, 0.000000)" fill-rule="nonzero">
                    <path d="M136.5,93.60143 C156.975418,93.5975315 174.602329,108.038287 178.600623,128.092357 C182.598917,148.146426 171.854987,168.228338 152.93951,176.056576 C134.024033,183.884814 112.205359,177.279053 100.827157,160.279184 C89.448956,143.279316 91.6802909,120.620154 106.156542,106.159387 C114.182021,98.0889798 125.110744,93.5660885 136.5,93.60143 M136.5,78 C104.193785,78 78,104.191096 78,136.5 C78,168.808904 104.188318,195 136.5,195 C168.811682,195 195,168.808904 195,136.5 C195,104.191096 168.808949,78 136.5,78 Z" id="Shape" fill="url(#linearGradient-1)"></path>
                    <path d="M208.180675,175.913325 C204.441292,182.703435 199.760409,188.93124 194.276911,194.411953 C162.192881,225.862857 110.742257,225.595211 78.9875471,193.812218 C47.2328372,162.029225 47.0402814,110.607694 78.5560725,78.5880467 C93.8915509,63.2302721 114.709589,54.5997477 136.419223,54.5997477 C158.128857,54.5997477 178.946895,63.2302721 194.282374,78.5880467 C199.763942,84.06912 204.442973,90.2969067 208.180675,97.0866747 L220.994537,88.0967128 C204.20622,58.7626281 172.618179,39 136.419223,39 C82.6070121,39 39,82.6530492 39,136.5 C39,190.346951 82.6152068,234 136.419223,234 C172.618179,234 204.20622,214.237372 221,184.903287 L208.180675,175.913325 Z" id="Path" fill="url(#linearGradient-2)"></path>
                    <path d="M258.36556,15.65636 L258.2724,73.91424 C235.48108,29.99752 189.64362,0 136.80546,0 C61.24996,0 0,61.33764 0,137 C0,212.66236 61.24996,274 136.80546,274 C189.4847,274 235.20982,244.18058 258.0669,200.47758 L257.97374,258.34364 L273.60818,258.34364 L274,15.65636 L258.36556,15.65636 Z M248.45772,184.22664 C224.190548,241.998715 160.08872,271.976107 100.193295,253.562898 C40.2978694,235.149689 4.10611267,174.339779 16.483513,112.91252 C28.8609134,51.4852604 85.7783572,9.43656291 148.130806,15.6559176 C210.483255,21.8752722 257.9739,74.3381436 257.9739,137 C258.000129,153.221001 254.76396,169.281643 248.45772,184.22664 Z" id="Shape" fill="url(#linearGradient-3)"></path>
                </g>
            </g>
        </g>
    </g>
</svg>
