<svg id="f7c36da1-791f-43ed-92a3-24352de4f39b" data-name="Ebene 1" xmlns="http://www.w3.org/2000/svg" xmlns:xlink="http://www.w3.org/1999/xlink" viewBox="0 0 1016 1024"><defs><style>.f51af853-893c-4f18-816d-b48fe7056e8e{fill:url(#a40c8b0e-29f2-49f8-a382-4f113c316d0c);}.add58d4d-292b-453e-b2e5-e746b56f17ba{fill:url(#f3d85697-2039-4e57-9be5-15425b0aadbc);}.edd71243-79a4-4f02-b262-da4ab62d8ab3{fill:url(#a73b898a-4b5b-406f-a18b-eadd21dba89c);}</style><linearGradient id="a40c8b0e-29f2-49f8-a382-4f113c316d0c" x1="293.31" y1="512" x2="721.27" y2="512" gradientUnits="userSpaceOnUse"><stop offset="0.01" stop-color="#1e6662"/><stop offset="1" stop-color="#2a9390"/></linearGradient><linearGradient id="f3d85697-2039-4e57-9be5-15425b0aadbc" x1="150.65" x2="816.93" xlink:href="#a40c8b0e-29f2-49f8-a382-4f113c316d0c"/><linearGradient id="a73b898a-4b5b-406f-a18b-eadd21dba89c" x1="8" x2="1008" xlink:href="#a40c8b0e-29f2-49f8-a382-4f113c316d0c"/></defs><path class="f51af853-893c-4f18-816d-b48fe7056e8e" d="M507.29,354.86a157,157,0,1,1-111,46,155.75,155.75,0,0,1,111-46m0-57.15c-118.18,0-214,95.94-214,214.29s95.8,214.29,214,214.29,214-95.94,214-214.29-95.81-214.29-214-214.29Z"/><path class="add58d4d-292b-453e-b2e5-e746b56f17ba" d="M770,656.37a301.29,301.29,0,0,1-50.9,67.76A299.79,299.79,0,0,1,295.46,299.87a299.27,299.27,0,0,1,423.66,0A301.29,301.29,0,0,1,770,367.63l46.91-32.93C755.45,227.25,639.81,154.86,507.29,154.86c-197,0-356.64,159.9-356.64,357.14S310.32,869.14,507.29,869.14c132.52,0,248.16-72.39,309.64-179.84Z"/><path class="edd71243-79a4-4f02-b262-da4ab62d8ab3" d="M950.94,69.14l-.34,212.62C867.42,121.48,700.13,12,507.29,12,231.54,12,8,235.86,8,512s223.54,500,499.29,500c192.26,0,359.14-108.83,442.56-268.33l-.34,211.19h57.06L1008,69.14ZM914.78,684.36A445.06,445.06,0,1,1,949.51,512,441.5,441.5,0,0,1,914.78,684.36Z"/></svg>