<svg id="e1511d55-4cb8-4744-ab66-0b143b01fa18" data-name="Ebene 1" xmlns="http://www.w3.org/2000/svg" xmlns:xlink="http://www.w3.org/1999/xlink" viewBox="0 0 3000 1200"><defs><style>.a99cdbdd-5384-4635-99ee-ec70e1b73a7c{fill:url(#b0432137-aefc-45ca-bda3-cd2a03525a17);}.bf50f571-3c96-45ed-ae8b-5cf7bea0fc0e{fill:url(#e9997242-f96e-40e0-9e0e-aaf578422ec8);}.b5cc80cd-02ba-4c44-93fb-cab59ef51732{fill:url(#f8a16fe3-5648-4962-8db5-915eca17565b);}.b8c56454-2808-4a0b-b0ca-93b552f50389{fill:url(#ab107c9c-6824-42b5-a2b2-e1e8632058cf);}.e62cbc49-cb58-4d36-8c66-83c48d51be23{fill:url(#b352b5cf-b266-4cef-9425-2826b2fc7d0e);}.b26f6053-f2f8-41c3-b596-2704aa3f9b9d{fill:url(#f5c4fa7a-02d0-494a-8c2b-9613758a8e89);}.fa6c60db-f6c9-454f-8a94-8ee8274fc71b{fill:url(#e53dd32c-67f5-414b-866c-a860fd04d94b);}.f3651a98-3645-45bf-8859-7c11e9276a99{fill:url(#a0369e2d-9799-4156-a37d-6cb214c97036);}.ac19a7ee-e8ad-4f41-b385-0f69a6b979d9{fill:url(#a974c0ec-2fb6-4a43-b8f6-77a573219bb5);}.b4788223-10d2-4d84-a883-26a708bdbd2d{fill:url(#ab3f7afc-f949-4d77-9367-6c7de145f163);}.ace55b99-bcbe-485d-8965-f5b4e960fa64{fill:url(#f28f5f7b-aa75-4978-9e4f-a99ba51b1237);}.a4dabdef-d315-447c-8cfc-27066030e62b{fill:url(#e804af6f-28e1-4d4d-8fcc-034fb3847a88);}.b51f896f-41cb-4882-9785-5638b8b34da4{fill:url(#b791da8d-99f5-4aa4-ad0b-750939bcd124);}.b1085f14-6e43-4b74-921e-f7f451795ff6{fill:url(#fc663519-de50-47c9-998f-0ab0e6fc1052);}.be774b17-bf51-4bab-b0a5-7ab8c2ab493d{fill:url(#fc4e06f7-c7a0-488a-9d16-0795aafdc1b8);}.b451e392-f040-4f84-be11-248823b4e702{fill:url(#a922f167-05a1-4f41-b2c9-c537f08eae1f);}.fde72810-1ad0-4e28-8d7d-96f35189bb34{fill:url(#a9716540-c869-4f9a-95e1-3b349b608024);}.a5efcc97-8714-4786-8609-9c0b3c6b30f4{fill:url(#aa511353-1c85-4d4d-8354-1549a761749f);}.e85c24d5-ed74-47a6-8f88-a6085b61fc8a{fill:url(#e64f72f6-3b2c-47e2-afce-249133c50ab3);}.b817caf9-8ab2-4b66-827c-db41a2190ac8{fill:url(#fb6825e9-37b3-4486-bb24-ed92680c9a8f);}.a5e01362-e43e-4c1b-89b5-fd69b01489ed{fill:url(#ba2b7af9-4828-40da-8cf5-146aa6c8cc50);}.f6af7133-52a6-49cc-af13-cb62fb15345f{fill:url(#fd3a11f8-2b04-41b7-b866-75951b07c864);}</style><linearGradient id="b0432137-aefc-45ca-bda3-cd2a03525a17" x1="1445.94" y1="531.55" x2="2000" y2="531.55" gradientUnits="userSpaceOnUse"><stop offset="0" stop-color="#2a9390"/><stop offset="0.99" stop-color="#1e6662"/></linearGradient><linearGradient id="e9997242-f96e-40e0-9e0e-aaf578422ec8" x1="1920.09" y1="353.95" x2="1920.09" y2="29.14" gradientUnits="userSpaceOnUse"><stop offset="0" stop-color="#2a9390"/><stop offset="0.04" stop-color="#288a87"/><stop offset="0.15" stop-color="#237a76"/><stop offset="0.28" stop-color="#206e6b"/><stop offset="0.47" stop-color="#1e6864"/><stop offset="0.99" stop-color="#1e6662"/></linearGradient><linearGradient id="f8a16fe3-5648-4962-8db5-915eca17565b" x1="-110.91" y1="3294.45" x2="-110.91" y2="3130.14" gradientTransform="translate(4225.61 -2114.4) rotate(45)" xlink:href="#e9997242-f96e-40e0-9e0e-aaf578422ec8"/><linearGradient id="ab107c9c-6824-42b5-a2b2-e1e8632058cf" x1="13830.67" y1="-1672.11" x2="13834.02" y2="-2260.05" gradientTransform="matrix(-0.94, 0.35, 0.35, 0.94, 15029.26, -2689.97)" xlink:href="#b0432137-aefc-45ca-bda3-cd2a03525a17"/><linearGradient id="b352b5cf-b266-4cef-9425-2826b2fc7d0e" x1="366.35" y1="3387.72" x2="369.7" y2="2799.78" gradientTransform="translate(1940.95 -2689.97) rotate(20.6)" gradientUnits="userSpaceOnUse"><stop offset="0" stop-color="#2a9390"/><stop offset="0.39" stop-color="#29918d"/><stop offset="0.62" stop-color="#278885"/><stop offset="0.81" stop-color="#237a77"/><stop offset="0.98" stop-color="#1e6763"/><stop offset="0.99" stop-color="#1e6662"/></linearGradient><linearGradient id="f5c4fa7a-02d0-494a-8c2b-9613758a8e89" x1="242.51" y1="4540.18" x2="636.93" y2="4316.21" gradientTransform="translate(3072.26 -3655.94) rotate(29.59)" gradientUnits="userSpaceOnUse"><stop offset="0.01" stop-color="#2a9390"/><stop offset="0.32" stop-color="#29908d"/><stop offset="0.59" stop-color="#268582"/><stop offset="0.84" stop-color="#227370"/><stop offset="0.99" stop-color="#1e6662"/></linearGradient><linearGradient id="e53dd32c-67f5-414b-866c-a860fd04d94b" x1="111.69" y1="1125.45" x2="111.69" y2="888.89" gradientUnits="userSpaceOnUse"><stop offset="0.01" stop-color="#1e6662"/><stop offset="1" stop-color="#2a9390"/></linearGradient><linearGradient id="a0369e2d-9799-4156-a37d-6cb214c97036" x1="337.28" y1="1200" x2="337.28" y2="974.05" xlink:href="#e53dd32c-67f5-414b-866c-a860fd04d94b"/><linearGradient id="a974c0ec-2fb6-4a43-b8f6-77a573219bb5" x1="530.54" y1="1200" x2="530.54" y2="974.05" xlink:href="#e53dd32c-67f5-414b-866c-a860fd04d94b"/><linearGradient id="ab3f7afc-f949-4d77-9367-6c7de145f163" x1="739.5" y1="1130.03" x2="739.5" y2="884.59" xlink:href="#e53dd32c-67f5-414b-866c-a860fd04d94b"/><linearGradient id="f28f5f7b-aa75-4978-9e4f-a99ba51b1237" x1="946.24" y1="1130.03" x2="946.24" y2="974.05" xlink:href="#e53dd32c-67f5-414b-866c-a860fd04d94b"/><linearGradient id="e804af6f-28e1-4d4d-8fcc-034fb3847a88" x1="1140.93" y1="1125.45" x2="1140.93" y2="974.05" xlink:href="#e53dd32c-67f5-414b-866c-a860fd04d94b"/><linearGradient id="b791da8d-99f5-4aa4-ad0b-750939bcd124" x1="1313.84" y1="1130.03" x2="1313.84" y2="974.05" xlink:href="#e53dd32c-67f5-414b-866c-a860fd04d94b"/><linearGradient id="fc663519-de50-47c9-998f-0ab0e6fc1052" x1="1481.08" y1="1130.03" x2="1481.08" y2="974.05" xlink:href="#e53dd32c-67f5-414b-866c-a860fd04d94b"/><linearGradient id="fc4e06f7-c7a0-488a-9d16-0795aafdc1b8" x1="1680.79" y1="1200" x2="1680.79" y2="974.05" xlink:href="#e53dd32c-67f5-414b-866c-a860fd04d94b"/><linearGradient id="a922f167-05a1-4f41-b2c9-c537f08eae1f" x1="1833.26" y1="1130.03" x2="1833.26" y2="923.73" xlink:href="#e53dd32c-67f5-414b-866c-a860fd04d94b"/><linearGradient id="a9716540-c869-4f9a-95e1-3b349b608024" x1="1934.55" y1="1125.45" x2="1934.55" y2="905.23" xlink:href="#e53dd32c-67f5-414b-866c-a860fd04d94b"/><linearGradient id="aa511353-1c85-4d4d-8354-1549a761749f" x1="2077.13" y1="1130.03" x2="2077.13" y2="974.05" xlink:href="#e53dd32c-67f5-414b-866c-a860fd04d94b"/><linearGradient id="e64f72f6-3b2c-47e2-afce-249133c50ab3" x1="2271.83" y1="1125.45" x2="2271.83" y2="974.05" xlink:href="#e53dd32c-67f5-414b-866c-a860fd04d94b"/><linearGradient id="fb6825e9-37b3-4486-bb24-ed92680c9a8f" x1="2502.08" y1="1130.03" x2="2502.08" y2="884.59" xlink:href="#e53dd32c-67f5-414b-866c-a860fd04d94b"/><linearGradient id="ba2b7af9-4828-40da-8cf5-146aa6c8cc50" x1="2735.2" y1="1125.45" x2="2735.2" y2="974.05" xlink:href="#e53dd32c-67f5-414b-866c-a860fd04d94b"/><linearGradient id="fd3a11f8-2b04-41b7-b866-75951b07c864" x1="2921.65" y1="1130.03" x2="2921.65" y2="974.05" xlink:href="#e53dd32c-67f5-414b-866c-a860fd04d94b"/></defs><path class="a99cdbdd-5384-4635-99ee-ec70e1b73a7c" d="M1737.63,823a291.42,291.42,0,1,1,203.72-500l.3.51,3,3a34.81,34.81,0,1,1-51,47.37l-.86-1-.93-.9a221.68,221.68,0,1,0,38.89,269l1.13-2,.84-2.13a34.62,34.62,0,0,1,3.4-6.57l.26-.39A34.84,34.84,0,0,1,2000,649.53a34.38,34.38,0,0,1-3.6,15.42l-5.79,11.67a291.75,291.75,0,0,1-253,146.38Z"/><path class="bf50f571-3c96-45ed-ae8b-5cf7bea0fc0e" d="M1920.09,388.64a34.86,34.86,0,0,1-34.84-34.8V35a34.84,34.84,0,0,1,69.68,0V353.84A34.86,34.86,0,0,1,1920.09,388.64Z"/><path class="b5cc80cd-02ba-4c44-93fb-cab59ef51732" d="M1829.85,159.28a34.8,34.8,0,0,1-24.63-59.42L1895,10.19a34.83,34.83,0,0,1,49.27,49.23l-89.75,89.67A34.62,34.62,0,0,1,1829.85,159.28Z"/><path class="b8c56454-2808-4a0b-b0ca-93b552f50389" d="M1486.59,628.67a35.06,35.06,0,0,1-32.66-22.6l-193-513.18a34.86,34.86,0,0,1,65.28-24.51l193,513.18a34.89,34.89,0,0,1-32.63,47.11Z"/><path class="e62cbc49-cb58-4d36-8c66-83c48d51be23" d="M1100,628.67a34.85,34.85,0,0,1-32.63-47.11l193-513.18a34.87,34.87,0,0,1,65.29,24.51l-193,513.18A35.06,35.06,0,0,1,1100,628.67Z"/><path class="b26f6053-f2f8-41c3-b596-2704aa3f9b9d" d="M1034.86,449.17a34.34,34.34,0,0,1-17.16-4.5,35,35,0,0,1-17.7-30.06,34.86,34.86,0,0,1,34.59-35.12l475.82-4.95a35,35,0,0,1,34.86,34.56,34.84,34.84,0,0,1-34.58,35.12Z"/><path class="fa6c60db-f6c9-454f-8a94-8ee8274fc71b" d="M0,1125.45,94.19,888.89H129l94.34,236.56H182.94l-23.23-61.65H63.66l-23.37,61.65Zm76.42-94.63H147l-35.41-91.47Z"/><path class="f3651a98-3645-45bf-8859-7c11e9276a99" d="M255.63,1200V978.64h35.7V1001a60.76,60.76,0,0,1,23.08-19.85,68.14,68.14,0,0,1,31-7.1q21.21,0,37.77,10.18A73.07,73.07,0,0,1,409.32,1012q9.6,17.56,9.61,40.07,0,22.23-9.54,39.93a72.48,72.48,0,0,1-26,27.89A69.29,69.29,0,0,1,346.24,1130a66.1,66.1,0,0,1-31-7.38,68.49,68.49,0,0,1-23.94-20.72V1200Zm80.43-100.5a44.94,44.94,0,0,0,23.44-6.1,43.57,43.57,0,0,0,16.13-16.77,50.16,50.16,0,0,0,5.88-24.59,49.45,49.45,0,0,0-5.95-24.44,44.88,44.88,0,0,0-16.13-16.85,44.23,44.23,0,0,0-23.37-6.16,44.54,44.54,0,0,0-39.86,22.94q-6,10.6-6,24.51a50.27,50.27,0,0,0,5.88,24.52,42.89,42.89,0,0,0,16.34,16.84A46.08,46.08,0,0,0,336.06,1099.5Z"/><path class="ac19a7ee-e8ad-4f41-b385-0f69a6b979d9" d="M448.89,1200V978.64h35.7V1001a60.76,60.76,0,0,1,23.08-19.85,68.17,68.17,0,0,1,31-7.1q21.21,0,37.78,10.18A73,73,0,0,1,602.58,1012q9.61,17.56,9.61,40.07,0,22.23-9.54,39.93a72.41,72.41,0,0,1-26,27.89A69.29,69.29,0,0,1,539.5,1130a66.13,66.13,0,0,1-31-7.38,68.58,68.58,0,0,1-23.94-20.72V1200Zm80.43-100.5a44.92,44.92,0,0,0,23.44-6.1,43.57,43.57,0,0,0,16.13-16.77,50.16,50.16,0,0,0,5.88-24.59,49.45,49.45,0,0,0-5.95-24.44,44.81,44.81,0,0,0-16.13-16.85,44.23,44.23,0,0,0-23.37-6.16,44.57,44.57,0,0,0-39.86,22.94q-6,10.6-6,24.51a50.27,50.27,0,0,0,5.88,24.52,43,43,0,0,0,16.34,16.84A46.1,46.1,0,0,0,529.32,1099.5Z"/><path class="b4788223-10d2-4d84-a883-26a708bdbd2d" d="M765.74,1130a131,131,0,0,1-49.82-9.46,128.46,128.46,0,0,1-40.86-26.23,121.18,121.18,0,0,1-27.39-39,122.2,122.2,0,0,1,0-96,121,121,0,0,1,27.39-39.07,129,129,0,0,1,40.71-26.23,130.78,130.78,0,0,1,50-9.46,136.71,136.71,0,0,1,41.5,6.23q19.71,6.24,33.91,16.85L824.66,939.5a78.94,78.94,0,0,0-25.52-13.34A101.42,101.42,0,0,0,768,921.43a94.5,94.5,0,0,0-35.7,6.6,87.9,87.9,0,0,0-28.46,18.28,82.7,82.7,0,0,0-18.78,27.31,88.54,88.54,0,0,0,0,67.38,82.6,82.6,0,0,0,18.78,27.31,87.73,87.73,0,0,0,28.46,18.28,94.5,94.5,0,0,0,35.7,6.6,101.42,101.42,0,0,0,31.11-4.73,78.94,78.94,0,0,0,25.52-13.34L841.15,1107q-13.9,10.18-33.41,16.63A132.91,132.91,0,0,1,765.74,1130Z"/><path class="ace55b99-bcbe-485d-8965-f5b4e960fa64" d="M946.24,1130q-23.81,0-42.94-9.89A77,77,0,0,1,873,1092.62Q861.79,1075,861.79,1052T873,1011.4a77.24,77.24,0,0,1,30.32-27.46q19.14-9.88,42.94-9.89t42.94,9.89a77.31,77.31,0,0,1,30.32,27.46q11.19,17.57,11.18,40.64t-11.18,40.58a77.08,77.08,0,0,1-30.32,27.52Q970,1130,946.24,1130Zm0-30.68a48.33,48.33,0,0,0,24.08-6,44,44,0,0,0,16.92-16.7,52.09,52.09,0,0,0,0-49.18,44.07,44.07,0,0,0-16.92-16.7,51.05,51.05,0,0,0-48.1,0,44.67,44.67,0,0,0-16.91,16.7,51.43,51.43,0,0,0,0,49.11,44.42,44.42,0,0,0,16.91,16.77A48,48,0,0,0,946.24,1099.35Z"/><path class="a4dabdef-d315-447c-8cfc-27066030e62b" d="M1070.25,1125.45V978.64H1106v17.63a58.59,58.59,0,0,1,20.36-16q12.62-6.24,28.82-6.24,17.05,0,29.75,7.17a49.41,49.41,0,0,1,19.71,20.5q7,13.34,7,31.25v92.48h-35.7v-85q0-18.35-9.11-28.32t-25.16-10q-11.18,0-19.14,4.52a32,32,0,0,0-12.26,12,33.16,33.16,0,0,0-4.3,16.7v90Z"/><path class="b51f896f-41cb-4882-9785-5638b8b34da4" d="M1330,1130a83.2,83.2,0,0,1-31.47-5.94,82,82,0,0,1-25.88-16.56,77.88,77.88,0,0,1-17.56-24.81,73.85,73.85,0,0,1-6.38-30.68,75,75,0,0,1,6.09-30,77.48,77.48,0,0,1,17.06-24.88,80.63,80.63,0,0,1,25.81-16.92,82.84,82.84,0,0,1,32-6.16,90.43,90.43,0,0,1,27.46,4.16q13.11,4.15,21.72,10.89l-12.76,24.09q-12.62-9.6-31.26-9.61-15,0-26.09,6.74a46.13,46.13,0,0,0-17,17.85,49.78,49.78,0,0,0-5.95,23.87,48.77,48.77,0,0,0,6.31,24.66,46.11,46.11,0,0,0,17.42,17.42q11.12,6.39,25.59,6.38a55.18,55.18,0,0,0,17.13-2.58,44.69,44.69,0,0,0,13.7-7l12.9,24.08a73.93,73.93,0,0,1-21.65,10.83A87.16,87.16,0,0,1,1330,1130Z"/><path class="b1085f14-6e43-4b74-921e-f7f451795ff6" d="M1485,1130q-23.52,0-42.15-10.17a76.91,76.91,0,0,1-29.39-27.82q-10.76-17.62-10.75-39.71a76.29,76.29,0,0,1,6.09-30.61,77.59,77.59,0,0,1,17.06-24.88,79.66,79.66,0,0,1,25.45-16.77,80.64,80.64,0,0,1,31.25-6q22.93,0,40.22,9.46a68.09,68.09,0,0,1,27,26.45q9.68,17,9.68,39.21c-.1,1.25-.17,2.32-.22,3.23s-.21,2.27-.5,4.09H1439.14a45.09,45.09,0,0,0,6,23.37A41.54,41.54,0,0,0,1462,1095.7a52.92,52.92,0,0,0,24.87,5.66,51,51,0,0,0,23.73-5.37q10.4-5.38,18.85-16.42l26,13.33a72.6,72.6,0,0,1-29,27.31Q1507.81,1130,1485,1130Zm-44.3-95.91H1524a38.4,38.4,0,0,0-22.08-28.74,45.42,45.42,0,0,0-19.5-4.09,49.39,49.39,0,0,0-20.22,3.94,35.66,35.66,0,0,0-14.4,11.33A38.59,38.59,0,0,0,1440.72,1034.12Z"/><path class="be774b17-bf51-4bab-b0a5-7ab8c2ab493d" d="M1599.14,1200V978.64h35.7V1001a60.76,60.76,0,0,1,23.08-19.85,68.17,68.17,0,0,1,31-7.1q21.21,0,37.78,10.18a73,73,0,0,1,26.16,27.74q9.62,17.56,9.61,40.07,0,22.23-9.53,39.93a72.51,72.51,0,0,1-26,27.89,69.29,69.29,0,0,1-37.13,10.17,66.16,66.16,0,0,1-31-7.38,68.58,68.58,0,0,1-23.94-20.72V1200Zm80.43-100.5a44.92,44.92,0,0,0,23.44-6.1,43.57,43.57,0,0,0,16.13-16.77A50.16,50.16,0,0,0,1725,1052a49.45,49.45,0,0,0-6-24.44,44.81,44.81,0,0,0-16.13-16.85,44.23,44.23,0,0,0-23.37-6.16,44.57,44.57,0,0,0-39.86,22.94q-6,10.6-6,24.51a50.27,50.27,0,0,0,5.88,24.52,42.92,42.92,0,0,0,16.35,16.84A46,46,0,0,0,1679.57,1099.5Z"/><path class="b451e392-f040-4f84-be11-248823b4e702" d="M1847.6,1130q-19.78,0-30.82-12.9t-11-36.27v-75.13h-18.07V978.64h18.07V923.73h35.7v54.91h33.69v27.09h-33.69v72.69q0,9.61,3.8,14.77t10.82,5.16a22.23,22.23,0,0,0,13.91-4.87l8.89,28.67a62.6,62.6,0,0,1-14.77,5.73A65.4,65.4,0,0,1,1847.6,1130Z"/><path class="fde72810-1ad0-4e28-8d7d-96f35189bb34" d="M1934.62,948.53a20.68,20.68,0,0,1-10.89-2.94,22.47,22.47,0,0,1-7.82-7.89,21,21,0,0,1-2.93-11,20.33,20.33,0,0,1,2.93-10.83,22.89,22.89,0,0,1,7.82-7.74,20.68,20.68,0,0,1,10.89-2.94,20.32,20.32,0,0,1,10.83,2.94,23.1,23.1,0,0,1,7.74,7.74,20.34,20.34,0,0,1,2.94,10.83,21,21,0,0,1-2.94,11,22.67,22.67,0,0,1-7.74,7.89A20.32,20.32,0,0,1,1934.62,948.53Zm-17.92,176.92V978.64h35.7v146.81Z"/><path class="a5efcc97-8714-4786-8609-9c0b3c6b30f4" d="M2077.13,1130q-23.8,0-42.94-9.89a77,77,0,0,1-30.32-27.52q-11.19-17.64-11.18-40.58t11.18-40.64a77.24,77.24,0,0,1,30.32-27.46q19.14-9.88,42.94-9.89t42.94,9.89a77.24,77.24,0,0,1,30.32,27.46q11.19,17.57,11.19,40.64t-11.19,40.58a77,77,0,0,1-30.32,27.52Q2100.93,1130,2077.13,1130Zm0-30.68a48.4,48.4,0,0,0,24.09-6,44,44,0,0,0,16.91-16.7,52.09,52.09,0,0,0,0-49.18,44,44,0,0,0-16.91-16.7,51,51,0,0,0-48.1,0,44.69,44.69,0,0,0-16.92,16.7,51.43,51.43,0,0,0,0,49.11,44.45,44.45,0,0,0,16.92,16.77A48,48,0,0,0,2077.13,1099.35Z"/><path class="e85c24d5-ed74-47a6-8f88-a6085b61fc8a" d="M2201.15,1125.45V978.64h35.69v17.63a58.68,58.68,0,0,1,20.36-16q12.62-6.24,28.82-6.24,17.05,0,29.75,7.17a49.41,49.41,0,0,1,19.71,20.5q7,13.34,7,31.25v92.48h-35.7v-85q0-18.35-9.1-28.32t-25.17-10q-11.17,0-19.14,4.52a31.86,31.86,0,0,0-12.25,12,33.06,33.06,0,0,0-4.31,16.7v90Z"/><path class="b817caf9-8ab2-4b66-827c-db41a2190ac8" d="M2502.08,1130a114.64,114.64,0,0,1-46.45-9.46,118.48,118.48,0,0,1-38-26.31,125.24,125.24,0,0,1,0-173.9,118.64,118.64,0,0,1,38-26.31,118.77,118.77,0,0,1,92.9,0,118.59,118.59,0,0,1,38,26.31,125.3,125.3,0,0,1,0,173.9,118.44,118.44,0,0,1-38,26.31A114.67,114.67,0,0,1,2502.08,1130Zm0-36.27a75,75,0,0,0,56.42-24.59,84.29,84.29,0,0,0,16.63-27.52,102.27,102.27,0,0,0,0-68.75,84.59,84.59,0,0,0-16.63-27.45,76.14,76.14,0,0,0-112.55,0,84.25,84.25,0,0,0-16.63,27.45,102.27,102.27,0,0,0,0,68.75,84,84,0,0,0,16.63,27.52,74.66,74.66,0,0,0,56.13,24.59Z"/><path class="a5e01362-e43e-4c1b-89b5-fd69b01489ed" d="M2664.51,1125.45V978.64h35.7v17.63a58.59,58.59,0,0,1,20.36-16q12.61-6.24,28.82-6.24,17.06,0,29.75,7.17a49.41,49.41,0,0,1,19.71,20.5q7,13.34,7,31.25v92.48h-35.7v-85q0-18.35-9.11-28.32t-25.16-10q-11.17,0-19.14,4.52a32,32,0,0,0-12.26,12,33.16,33.16,0,0,0-4.3,16.7v90Z"/><path class="f6af7133-52a6-49cc-af13-cb62fb15345f" d="M2925.59,1130q-23.52,0-42.15-10.17a76.91,76.91,0,0,1-29.39-27.82q-10.76-17.62-10.75-39.71a76.46,76.46,0,0,1,6.09-30.61,77.59,77.59,0,0,1,17.06-24.88,79.66,79.66,0,0,1,25.45-16.77,80.64,80.64,0,0,1,31.25-6q22.95,0,40.22,9.46a68,68,0,0,1,27,26.45q9.67,17,9.68,39.21c-.1,1.25-.17,2.32-.22,3.23a39.93,39.93,0,0,1-.5,4.09H2879.71a45.09,45.09,0,0,0,6,23.37,41.54,41.54,0,0,0,16.85,15.84,53,53,0,0,0,24.87,5.66,51,51,0,0,0,23.73-5.37q10.4-5.38,18.86-16.42L2996,1092.9a72.69,72.69,0,0,1-29,27.31Q2948.38,1130,2925.59,1130Zm-44.3-95.91h83.3a38.4,38.4,0,0,0-22.08-28.74,45.42,45.42,0,0,0-19.5-4.09,49.31,49.31,0,0,0-20.21,3.94,35.63,35.63,0,0,0-14.41,11.33A38.7,38.7,0,0,0,2881.29,1034.12Z"/></svg>