<svg id="a6febb00-33ff-409d-93a3-e4b37317748a" data-name="Ebene 1" xmlns="http://www.w3.org/2000/svg" xmlns:xlink="http://www.w3.org/1999/xlink" viewBox="0 0 1024.21 1027.13"><defs><style>.a78e25b4-69db-4f3d-8203-defba3ee51ed{fill:url(#b78c7b69-8119-4eec-a638-830751f0db7b);}.ae9b118a-1bf3-4306-9699-50ebaf278f85{fill:url(#bc2e66f6-5e5c-41f1-8d08-c39f36abd1d6);}.ae88bc6f-7322-4fc7-8389-69fd782ab421{fill:url(#a21c2999-fdd1-4c2f-9465-b2757ab2063b);}.fcf47cc7-8689-4130-b934-1f60f5e838a7{fill:url(#f8cf398c-3c30-4028-a094-31128fb76220);}.bff8d622-c2a2-4dac-9163-cf03ce17a051{fill:url(#bd6a945a-6d69-4eaf-8780-631e49b15fde);}.b06dd599-44fa-4eb8-97de-3249d57b24d7{fill:url(#a7c1b77d-c896-46eb-9a5d-4f62f865bda8);}</style><linearGradient id="b78c7b69-8119-4eec-a638-830751f0db7b" x1="457.85" y1="633.68" x2="1011.91" y2="633.68" gradientUnits="userSpaceOnUse"><stop offset="0" stop-color="#2a9390"/><stop offset="0.99" stop-color="#1e6662"/></linearGradient><linearGradient id="bc2e66f6-5e5c-41f1-8d08-c39f36abd1d6" x1="932" y1="456.08" x2="932" y2="131.26" gradientUnits="userSpaceOnUse"><stop offset="0" stop-color="#2a9390"/><stop offset="0.04" stop-color="#288a87"/><stop offset="0.15" stop-color="#237a76"/><stop offset="0.28" stop-color="#206e6b"/><stop offset="0.47" stop-color="#1e6864"/><stop offset="0.99" stop-color="#1e6662"/></linearGradient><linearGradient id="a21c2999-fdd1-4c2f-9465-b2757ab2063b" x1="-1846.14" y1="4524.7" x2="-1846.14" y2="4360.39" gradientTransform="translate(5334.43 -1655.2) rotate(45)" xlink:href="#bc2e66f6-5e5c-41f1-8d08-c39f36abd1d6"/><linearGradient id="f8cf398c-3c30-4028-a094-31128fb76220" x1="14240.13" y1="-1823.91" x2="14243.48" y2="-2411.85" gradientTransform="matrix(-0.94, 0.35, 0.35, 0.94, 14477.86, -2589.79)" xlink:href="#b78c7b69-8119-4eec-a638-830751f0db7b"/><linearGradient id="bd6a945a-6d69-4eaf-8780-631e49b15fde" x1="-1074.26" y1="3931.17" x2="-1070.91" y2="3343.23" gradientTransform="translate(2492.56 -2589.79) rotate(20.6)" gradientUnits="userSpaceOnUse"><stop offset="0" stop-color="#2a9390"/><stop offset="0.39" stop-color="#29918d"/><stop offset="0.62" stop-color="#278885"/><stop offset="0.81" stop-color="#237a77"/><stop offset="0.98" stop-color="#1e6763"/><stop offset="0.99" stop-color="#1e6662"/></linearGradient><linearGradient id="a7c1b77d-c896-46eb-9a5d-4f62f865bda8" x1="-1340.57" y1="5321.46" x2="-946.15" y2="5097.49" gradientTransform="translate(3846.58 -3451.48) rotate(29.59)" gradientUnits="userSpaceOnUse"><stop offset="0.01" stop-color="#2a9390"/><stop offset="0.32" stop-color="#29908d"/><stop offset="0.59" stop-color="#268582"/><stop offset="0.84" stop-color="#227370"/><stop offset="0.99" stop-color="#1e6662"/></linearGradient></defs><path class="a78e25b4-69db-4f3d-8203-defba3ee51ed" d="M749.55,925.13a291.41,291.41,0,1,1,203.72-500l.29.51,3,3a34.81,34.81,0,1,1-51,47.37l-.85-1-.93-.9a221.71,221.71,0,1,0,38.88,269l1.13-2,.84-2.14a34.54,34.54,0,0,1,3.4-6.56l.27-.4a34.84,34.84,0,0,1,63.62,19.6,34.34,34.34,0,0,1-3.6,15.41l-5.79,11.68a291.75,291.75,0,0,1-253,146.38Z"/><path class="ae9b118a-1bf3-4306-9699-50ebaf278f85" d="M932,490.77A34.86,34.86,0,0,1,897.17,456V137.1a34.84,34.84,0,0,1,69.67,0V456A34.87,34.87,0,0,1,932,490.77Z"/><path class="ae88bc6f-7322-4fc7-8389-69fd782ab421" d="M841.76,261.41A34.8,34.8,0,0,1,817.13,202l89.74-89.67a34.83,34.83,0,1,1,49.27,49.23L866.4,251.21A34.61,34.61,0,0,1,841.76,261.41Z"/><path class="fcf47cc7-8689-4130-b934-1f60f5e838a7" d="M498.5,730.8a35.06,35.06,0,0,1-32.66-22.6L272.83,195a34.86,34.86,0,0,1,65.28-24.51l193,513.18A34.91,34.91,0,0,1,498.5,730.8Z"/><path class="bff8d622-c2a2-4dac-9163-cf03ce17a051" d="M111.88,730.8a35,35,0,0,1-12.26-2.24,34.84,34.84,0,0,1-20.37-44.87l193-513.18A34.86,34.86,0,0,1,337.55,195l-193,513.18A35,35,0,0,1,111.88,730.8Z"/><path class="b06dd599-44fa-4eb8-97de-3249d57b24d7" d="M46.77,551.3a34.44,34.44,0,0,1-17.16-4.5,35,35,0,0,1-17.7-30.06A34.84,34.84,0,0,1,46.5,481.62l475.83-4.95a34.94,34.94,0,0,1,34.85,34.56,34.86,34.86,0,0,1-34.58,35.12Z"/></svg>
